# File created by Blade
# Date/Time:  Thu Jan 22 19:24:19 2015
# Frame Rate: 120.000 fps
#------------------------------------------------------
:FULLY-SPECIFIED
:DEGREES
1812
root 4.848068 32.328117 -3.535714 10.591215 15.786327 6.049341
RightUpLeg -18.432969 -4.792470 8.633156
RightLeg 25.762875 -0.000000 -0.000000
RightFoot -22.697331 -13.899671 -2.566769
RightToeBase 2.353381 -0.000000 -0.000000
LeftUpLeg 0.160928 -19.388016 -16.033241
LeftLeg -3.556860 -0.000000 0.000000
LeftFoot -5.009996 1.913556 -4.496514
LeftToeBase 5.298795 -0.000000 -0.000000
Spine -9.654830 -6.751173 18.772504
RightShoulder -20.348731 -16.195990 -16.345202
RightArm 20.149486 33.291636 61.800847
RightForeArm -0.135373 0.000000 31.024295
RightHand 19.054962 -0.000000 -9.702270
RightHandThumb1 -24.326973 -0.000000 -32.862282
LeftShoulder -19.557348 3.688264 34.822767
LeftArm 12.539856 -26.870763 -29.129165
LeftForeArm 17.535482 0.000000 1.071936
LeftHand -0.128809 -0.000000 -20.203583
LeftHandThumb1 -26.253704 0.000000 33.147579
Head -8.451068 -0.491687 -0.287588
1813
root 4.871476 32.320347 -3.544787 10.599862 15.724333 6.037806
RightUpLeg -18.557451 -4.776327 8.595147
RightLeg 25.999975 -0.000000 -0.000000
RightFoot -22.859366 -13.800417 -2.402385
RightToeBase 2.350453 -0.000000 -0.000000
LeftUpLeg 0.133408 -19.236617 -16.076597
LeftLeg -3.551854 -0.000000 0.000000
LeftFoot -4.999503 1.786807 -4.382699
LeftToeBase 5.322049 -0.000000 -0.000000
Spine -9.608528 -6.641867 18.948535
RightShoulder -20.282024 -16.113961 -15.973223
RightArm 20.228220 32.969761 62.095354
RightForeArm -0.489360 -0.000000 31.072676
RightHand 19.021081 -0.000000 -9.219946
RightHandThumb1 -24.326973 -0.000000 -32.862282
LeftShoulder -19.519033 3.429226 35.294653
LeftArm 12.556423 -27.012219 -28.586997
LeftForeArm 17.201858 -0.000000 1.178183
LeftHand -0.362487 -0.000000 -19.839074
LeftHandThumb1 -26.253704 0.000000 33.147579
Head -8.512398 -0.490659 0.081180
1814
root 4.896505 32.312396 -3.551419 10.610770 15.644796 6.041183
RightUpLeg -18.688159 -4.783722 8.545754
RightLeg 26.264671 -0.000000 -0.000000
RightFoot -23.019692 -13.718190 -2.301010
RightToeBase 2.389571 -0.000000 -0.000000
LeftUpLeg 0.149640 -19.276960 -16.137709
LeftLeg -3.627023 -0.000000 0.000000
LeftFoot -4.945962 1.896628 -4.234200
LeftToeBase 5.411802 -0.000000 -0.000000
Spine -9.570002 -6.531920 19.102851
RightShoulder -20.206145 -16.078809 -15.626444
RightArm 20.255824 32.419155 62.304113
RightForeArm -0.399391 -0.000000 31.107878
RightHand 19.083380 0.000000 -8.957701
RightHandThumb1 -24.326973 -0.000000 -32.862282
LeftShoulder -19.380866 3.183064 35.783282
LeftArm 12.453348 -26.996043 -27.948233
LeftForeArm 16.635271 0.000000 1.172406
LeftHand -0.378577 0.000000 -19.601386
LeftHandThumb1 -26.253704 0.000000 33.147579
Head -8.512053 -0.449745 0.454619
1815
root 4.922139 32.303703 -3.555661 10.622838 15.525412 6.049909
RightUpLeg -18.823203 -4.769974 8.486547
RightLeg 26.546457 -0.000000 -0.000000
RightFoot -23.182784 -13.608999 -2.202216
RightToeBase 2.378314 -0.000000 -0.000000
LeftUpLeg 0.151712 -19.182390 -16.214834
LeftLeg -3.675710 -0.000000 0.000000
LeftFoot -4.892841 1.892196 -4.039143
LeftToeBase 5.392955 -0.000000 -0.000000
Spine -9.519342 -6.385885 19.246598
RightShoulder -20.167182 -16.100375 -15.279493
RightArm 20.368964 31.898648 62.610364
RightForeArm -0.523538 -0.000000 31.213561
RightHand 18.960527 -0.000000 -8.686620
RightHandThumb1 -24.326973 -0.000000 -32.862282
LeftShoulder -19.204604 2.888023 36.204777
LeftArm 12.248857 -27.250053 -27.240143
LeftForeArm 16.469667 -0.000000 1.221839
LeftHand -0.208548 -0.000000 -19.785523
LeftHandThumb1 -26.253704 0.000000 33.147579
Head -8.579036 -0.442775 0.794860
1816
root 4.944872 32.295365 -3.560355 10.627474 15.416393 6.050897
RightUpLeg -18.948777 -4.762546 8.437763
RightLeg 26.815515 -0.000000 -0.000000
RightFoot -23.346954 -13.476996 -2.062895
RightToeBase 2.482265 -0.000000 -0.000000
LeftUpLeg 0.147053 -19.089947 -16.276605
LeftLeg -3.702104 -0.000000 0.000000
LeftFoot -4.857170 1.868372 -3.862475
LeftToeBase 5.579434 -0.000000 -0.000000
Spine -9.471649 -6.262800 19.392697
RightShoulder -20.162538 -16.181746 -14.938046
RightArm 20.536702 31.159048 62.864631
RightForeArm -0.441282 -0.000000 31.226860
RightHand 19.083223 -0.000000 -8.500863
RightHandThumb1 -24.326973 -0.000000 -32.862282
LeftShoulder -19.080441 2.765626 36.578742
LeftArm 12.179419 -27.491856 -26.603128
LeftForeArm 16.168685 -0.000000 1.336757
LeftHand -0.105033 -0.000000 -19.738245
LeftHandThumb1 -26.253704 0.000000 33.147579
Head -8.594789 -0.433325 1.130411
1817
root 4.966713 32.286348 -3.566857 10.631794 15.283252 6.055789
RightUpLeg -19.091972 -4.688677 8.378324
RightLeg 27.105582 -0.000000 -0.000000
RightFoot -23.488647 -13.413372 -1.952134
RightToeBase 2.453796 -0.000000 -0.000000
LeftUpLeg 0.124784 -18.981986 -16.346074
LeftLeg -3.722468 -0.000000 0.000000
LeftFoot -4.787892 1.814021 -3.794961
LeftToeBase 5.395124 -0.000000 -0.000000
Spine -9.390699 -6.139507 19.516673
RightShoulder -20.137072 -16.213972 -14.564193
RightArm 20.584357 30.295281 62.950562
RightForeArm -0.378063 -0.000000 31.352201
RightHand 19.016033 -0.000000 -8.328882
RightHandThumb1 -24.326973 -0.000000 -32.862282
LeftShoulder -19.051325 2.669527 36.961965
LeftArm 12.251652 -27.787355 -26.037677
LeftForeArm 15.964362 -0.000000 1.403861
LeftHand -0.089885 0.000000 -19.705252
LeftHandThumb1 -26.253704 0.000000 33.147579
Head -8.664485 -0.404806 1.489970
1818
root 4.990658 32.278051 -3.570897 10.644554 15.159934 6.054329
RightUpLeg -19.223607 -4.638128 8.324101
RightLeg 27.354693 -0.000000 -0.000000
RightFoot -23.600462 -13.350769 -1.883608
RightToeBase 2.482803 -0.000000 -0.000000
LeftUpLeg 0.093188 -18.886464 -16.409458
LeftLeg -3.713060 -0.000000 0.000000
LeftFoot -4.777893 1.801943 -3.676792
LeftToeBase 5.528983 -0.000000 -0.000000
Spine -9.334534 -6.011800 19.673999
RightShoulder -20.100559 -16.187038 -14.278891
RightArm 20.577264 29.550414 63.135645
RightForeArm -0.703129 -0.000000 31.521378
RightHand 18.917445 -0.000000 -7.947396
RightHandThumb1 -24.326973 -0.000000 -32.862282
LeftShoulder -19.021053 2.497480 37.353445
LeftArm 12.308961 -28.004849 -25.485855
LeftForeArm 15.933551 0.000000 1.459728
LeftHand -0.119633 0.000000 -19.766719
LeftHandThumb1 -26.253704 0.000000 33.147579
Head -8.719597 -0.355409 1.778720
1819
root 5.014574 32.270435 -3.573263 10.673744 15.044428 6.043203
RightUpLeg -19.358464 -4.586672 8.284958
RightLeg 27.577502 -0.000000 -0.000000
RightFoot -23.688022 -13.310058 -1.853627
RightToeBase 2.483548 -0.000000 -0.000000
LeftUpLeg 0.040152 -18.821228 -16.456794
LeftLeg -3.672758 -0.000000 0.000000
LeftFoot -4.864186 1.875931 -3.412226
LeftToeBase 5.861413 -0.000000 -0.000000
Spine -9.319736 -5.883299 19.843528
RightShoulder -20.087575 -16.290107 -13.941775
RightArm 20.596630 28.648659 63.195234
RightForeArm -0.975896 -0.000000 31.779972
RightHand 18.791980 -0.000000 -7.521524
RightHandThumb1 -24.326973 -0.000000 -32.862282
LeftShoulder -18.963651 2.329525 37.739092
LeftArm 12.318864 -28.159752 -24.909652
LeftForeArm 15.765647 -0.000000 1.525571
LeftHand -0.002448 0.000000 -19.713559
LeftHandThumb1 -26.253704 0.000000 33.147579
Head -8.744894 -0.353743 2.065227
1820
root 5.039102 32.263797 -3.573640 10.661622 14.915423 6.024173
RightUpLeg -19.423837 -4.554433 8.251364
RightLeg 27.747591 -0.000000 -0.000000
RightFoot -23.745379 -13.240258 -1.872865
RightToeBase 2.422020 -0.000000 -0.000000
LeftUpLeg 0.020998 -18.751344 -16.507653
LeftLeg -3.637082 -0.000000 0.000000
LeftFoot -4.896476 1.919859 -3.329625
LeftToeBase 5.986857 -0.000000 -0.000000
Spine -9.247173 -5.776897 20.029047
RightShoulder -20.089499 -16.391466 -13.619743
RightArm 20.610886 27.545696 63.140689
RightForeArm -1.103434 -0.000000 32.009075
RightHand 18.789957 -0.000000 -7.309631
RightHandThumb1 -24.326973 -0.000000 -32.862282
LeftShoulder -18.989746 2.185631 38.111522
LeftArm 12.454159 -28.352086 -24.438392
LeftForeArm 15.701064 -0.000000 1.613723
LeftHand -0.258082 -0.000000 -19.189887
LeftHandThumb1 -26.253704 0.000000 33.147579
Head -8.807218 -0.319939 2.302639
1821
root 5.065728 32.259502 -3.572397 10.639714 14.792458 5.987736
RightUpLeg -19.453827 -4.552714 8.231543
RightLeg 27.858367 -0.000000 -0.000000
RightFoot -23.733053 -13.184539 -2.014590
RightToeBase 2.351180 -0.000000 -0.000000
LeftUpLeg 0.007509 -18.664648 -16.544587
LeftLeg -3.593831 -0.000000 0.000000
LeftFoot -4.921001 1.936698 -3.239104
LeftToeBase 5.969529 -0.000000 -0.000000
Spine -9.182139 -5.690718 20.253840
RightShoulder -20.080061 -16.513643 -13.293636
RightArm 20.683113 26.509662 63.106781
RightForeArm -1.444403 -0.000000 32.282383
RightHand 18.723027 -0.000000 -7.248411
RightHandThumb1 -24.326973 -0.000000 -32.862282
LeftShoulder -18.959058 2.088635 38.436102
LeftArm 12.488356 -28.551974 -23.884167
LeftForeArm 15.547846 0.000000 1.707349
LeftHand -0.133551 -0.000000 -19.286010
LeftHandThumb1 -26.253704 0.000000 33.147579
Head -8.815818 -0.227420 2.522889
1822
root 5.092077 32.255438 -3.570275 10.611604 14.657677 5.935731
RightUpLeg -19.460667 -4.510252 8.225611
RightLeg 27.922066 -0.000000 -0.000000
RightFoot -23.664637 -13.183734 -2.217077
RightToeBase 2.183254 -0.000000 -0.000000
LeftUpLeg -0.009659 -18.557429 -16.565768
LeftLeg -3.538794 -0.000000 0.000000
LeftFoot -4.974193 1.935302 -3.175324
LeftToeBase 6.111125 -0.000000 -0.000000
Spine -9.093339 -5.588400 20.500817
RightShoulder -20.082220 -16.590384 -12.986684
RightArm 20.691320 25.528357 63.058424
RightForeArm -1.763063 0.000000 32.642659
RightHand 18.706891 -0.000000 -6.900034
RightHandThumb1 -24.326973 -0.000000 -32.862282
LeftShoulder -18.984918 1.957301 38.771684
LeftArm 12.560628 -28.669135 -23.378193
LeftForeArm 15.463154 -0.000000 1.793415
LeftHand -0.164271 -0.000000 -19.274899
LeftHandThumb1 -26.253704 0.000000 33.147579
Head -8.886962 -0.195660 2.693869
1823
root 5.119360 32.253392 -3.567050 10.596274 14.543289 5.884892
RightUpLeg -19.460155 -4.505822 8.226788
RightLeg 27.946609 -0.000000 -0.000000
RightFoot -23.568756 -13.184194 -2.470322
RightToeBase 2.026523 -0.000000 -0.000000
LeftUpLeg -0.038202 -18.497803 -16.581417
LeftLeg -3.475283 -0.000000 0.000000
LeftFoot -5.001294 1.966733 -3.098112
LeftToeBase 6.160145 -0.000000 -0.000000
Spine -9.041404 -5.489040 20.768313
RightShoulder -20.146468 -16.785261 -12.669834
RightArm 20.894167 24.669468 63.170427
RightForeArm -2.378731 0.000000 32.997279
RightHand 18.683102 -0.000000 -6.567645
RightHandThumb1 -24.326973 -0.000000 -32.862282
LeftShoulder -18.978367 1.824222 39.098555
LeftArm 12.620278 -28.742179 -22.870986
LeftForeArm 15.104765 0.000000 1.860048
LeftHand -0.166847 -0.000000 -18.922721
LeftHandThumb1 -26.253704 0.000000 33.147579
Head -8.931448 -0.159954 2.842332
